<?xml version="1.0" standalone="no"?>
<!DOCTYPE svg PUBLIC "-//W3C//DTD SVG 20010904//EN"
 "http://www.w3.org/TR/2001/REC-SVG-20010904/DTD/svg10.dtd">
<svg version="1.0" xmlns="http://www.w3.org/2000/svg"
 width="160.000000pt" height="160.000000pt" viewBox="0 0 160.000000 160.000000"
 preserveAspectRatio="xMidYMid meet">
<metadata>
Created by potrace 1.14, written by Peter Selinger 2001-2017
</metadata>
<g transform="translate(0.000000,160.000000) scale(0.100000,-0.100000)"
fill="#000000" stroke="none">
<path d="M1154 1304 c-18 -15 -18 -15 6 -10 14 3 28 6 33 6 4 0 7 5 7 10 0 15
-24 12 -46 -6z"/>
<path d="M814 1285 c-16 -12 -17 -14 -3 -15 9 0 19 7 23 15 7 19 5 19 -20 0z"/>
<path d="M948 1283 c7 -3 16 -2 19 1 4 3 -2 6 -13 5 -11 0 -14 -3 -6 -6z"/>
<path d="M1230 1250 c0 -5 7 -7 15 -4 8 4 15 8 15 10 0 2 -7 4 -15 4 -8 0 -15
-4 -15 -10z"/>
<path d="M975 1240 c4 -6 11 -8 16 -5 14 9 11 15 -7 15 -8 0 -12 -5 -9 -10z"/>
<path d="M1320 1240 c-8 -5 -11 -12 -8 -16 10 -9 38 3 38 16 0 12 -10 13 -30
0z"/>
<path d="M1099 1223 c-13 -16 -12 -17 4 -4 9 7 17 15 17 17 0 8 -8 3 -21 -13z"/>
<path d="M835 1190 c-3 -5 -1 -10 4 -10 6 0 11 5 11 10 0 6 -2 10 -4 10 -3 0
-8 -4 -11 -10z"/>
<path d="M1105 1170 c-3 -5 -1 -10 4 -10 6 0 11 5 11 10 0 6 -2 10 -4 10 -3 0
-8 -4 -11 -10z"/>
<path d="M965 1141 c-10 -17 12 -21 25 -6 10 12 10 15 -3 15 -9 0 -18 -4 -22
-9z"/>
<path d="M1060 1140 c-8 -5 -12 -12 -9 -15 4 -3 12 1 19 10 14 17 11 19 -10 5z"/>
<path d="M1440 1140 c0 -5 5 -10 10 -10 6 0 10 5 10 10 0 6 -4 10 -10 10 -5 0
-10 -4 -10 -10z"/>
<path d="M805 1130 c-3 -5 -1 -10 4 -10 6 0 11 5 11 10 0 6 -2 10 -4 10 -3 0
-8 -4 -11 -10z"/>
<path d="M1447 1093 c-4 -3 -7 -11 -7 -17 0 -6 5 -5 12 2 6 6 9 14 7 17 -3 3
-9 2 -12 -2z"/>
<path d="M1058 1063 c-10 -2 -18 -9 -18 -14 0 -6 8 -5 20 1 11 6 20 13 20 15
0 3 -1 4 -2 4 -2 -1 -11 -3 -20 -6z"/>
<path d="M956 1041 c-4 -7 -5 -15 -2 -18 9 -9 19 4 14 18 -4 11 -6 11 -12 0z"/>
<path d="M390 1024 c0 -8 5 -12 10 -9 6 3 10 10 10 16 0 5 -4 9 -10 9 -5 0
-10 -7 -10 -16z"/>
<path d="M1551 1013 c-1 -6 -11 -13 -23 -15 -15 -2 -24 -11 -26 -26 -3 -20 0
-22 21 -17 22 6 25 3 29 -25 3 -17 1 -33 -4 -36 -4 -3 -8 1 -8 8 -1 7 -6 3
-13 -10 -7 -12 -16 -20 -19 -17 -11 11 -48 -15 -42 -29 3 -7 -3 -19 -13 -26
-15 -12 -16 -12 -5 0 15 18 16 34 0 24 -8 -5 -9 -2 -5 9 3 10 4 17 2 17 -9 0
-50 -25 -58 -35 -5 -5 -5 1 -2 14 6 20 4 23 -10 18 -9 -4 -19 -7 -21 -7 -2 0
-4 -8 -4 -17 -1 -16 -2 -17 -13 -2 -13 17 -31 14 -133 -19 -25 -8 -35 -7 -47
6 -15 14 -16 13 -11 -4 4 -15 -5 -23 -38 -38 -24 -10 -50 -22 -58 -27 -8 -5
-34 -18 -57 -30 -24 -12 -43 -27 -43 -34 0 -15 -40 -31 -83 -34 -22 -1 -34
-30 -18 -40 9 -6 8 -11 -4 -21 -12 -10 -15 -10 -15 4 0 9 -5 16 -11 16 -6 0
-9 -9 -6 -19 5 -21 -16 -46 -55 -65 -14 -7 -23 -22 -25 -40 -2 -34 -13 -48
-13 -18 0 24 -16 22 -62 -10 -15 -10 -44 -25 -66 -32 -38 -14 -39 -13 -34 6 4
16 1 19 -14 16 -14 -3 -19 -12 -17 -33 0 -17 -1 -24 -4 -17 -2 6 -11 12 -18
12 -8 0 -25 12 -39 27 -27 29 -48 24 -28 -7 19 -30 14 -38 -8 -12 -16 19 -25
22 -55 16 -19 -3 -35 -2 -35 3 0 13 -59 45 -74 40 -7 -3 -21 8 -32 24 -10 16
-24 27 -31 25 -7 -3 -15 4 -18 15 -4 10 -12 19 -20 19 -7 0 -22 11 -33 25 -21
27 -42 33 -42 13 0 -33 -29 48 -36 99 -4 32 -11 67 -16 78 -14 33 -1 -215 15
-265 18 -56 58 -144 69 -148 4 -2 8 -9 8 -16 0 -16 34 -56 47 -56 6 0 17 -18
26 -40 16 -41 37 -54 37 -22 0 14 2 15 9 2 6 -8 7 -18 4 -23 -6 -11 26 -47 42
-47 7 0 16 -7 19 -16 3 -8 14 -14 25 -12 10 2 29 -6 40 -17 19 -16 25 -17 43
-6 11 7 17 8 14 3 -8 -13 23 -38 55 -46 35 -8 132 11 187 36 25 12 99 74 170
142 162 155 210 194 302 245 41 24 78 48 82 54 6 9 8 8 8 -1 0 -16 36 -7 61
14 9 8 18 12 21 8 14 -13 76 26 89 55 8 17 22 34 31 37 10 3 18 10 18 16 0 5
-7 7 -16 4 -9 -3 -28 -9 -42 -12 l-27 -6 23 16 c12 10 22 24 22 33 0 14 2 14
15 -3 15 -19 15 -19 34 4 11 12 21 27 23 33 6 19 40 -3 35 -22 -11 -41 10 -25
26 19 18 53 23 199 8 247 -5 17 -10 25 -10 18z m-131 -219 c0 -2 -9 0 -20 6
-11 6 -20 13 -20 16 0 2 9 0 20 -6 11 -6 20 -13 20 -16z m128 -10 c1 -1 -5 -4
-16 -6 -12 -4 -18 1 -19 14 -2 17 0 18 15 7 9 -8 18 -14 20 -15z m-144 -29
c-4 -8 -11 -12 -16 -9 -6 4 -5 10 3 15 19 12 19 11 13 -6z m-170 -134 c3 -5
-1 -11 -9 -14 -9 -4 -12 -1 -8 9 6 16 10 17 17 5z m66 -1 c0 -5 -5 -10 -11
-10 -5 0 -7 5 -4 10 3 6 8 10 11 10 2 0 4 -4 4 -10z"/>
<path d="M1000 1000 c-9 -6 -10 -10 -3 -10 6 0 15 5 18 10 8 12 4 12 -15 0z"/>
<path d="M1250 989 c0 -5 5 -7 10 -4 6 3 10 8 10 11 0 2 -4 4 -10 4 -5 0 -10
-5 -10 -11z"/>
<path d="M835 980 c-3 -5 1 -10 9 -10 8 0 18 5 21 10 3 6 -1 10 -9 10 -8 0
-18 -4 -21 -10z"/>
<path d="M1197 969 c-9 -6 -17 -14 -17 -19 0 -16 30 -11 37 5 8 21 1 25 -20
14z"/>
<path d="M1257 932 c-24 -26 -21 -33 8 -20 14 6 25 17 25 25 0 18 -14 16 -33
-5z"/>
<path d="M1352 931 c-10 -6 -8 -10 9 -14 26 -7 42 0 34 14 -8 11 -26 11 -43 0z"/>
<path d="M525 880 c-3 -5 -2 -10 4 -10 5 0 13 5 16 10 3 6 2 10 -4 10 -5 0
-13 -4 -16 -10z"/>
<path d="M1130 880 c0 -5 7 -10 15 -10 8 0 15 5 15 10 0 6 -7 10 -15 10 -8 0
-15 -4 -15 -10z"/>
<path d="M1410 880 c0 -5 4 -10 9 -10 6 0 13 5 16 10 3 6 -1 10 -9 10 -9 0
-16 -4 -16 -10z"/>
<path d="M1240 859 c0 -5 5 -7 10 -4 6 3 10 8 10 11 0 2 -4 4 -10 4 -5 0 -10
-5 -10 -11z"/>
<path d="M367 840 c-3 -13 0 -20 9 -20 15 0 19 26 5 34 -5 3 -11 -3 -14 -14z"/>
<path d="M41 824 c0 -11 3 -14 6 -6 3 7 2 16 -1 19 -3 4 -6 -2 -5 -13z"/>
<path d="M934 829 c-3 -6 1 -18 10 -27 15 -15 16 -14 16 11 0 27 -13 36 -26
16z"/>
<path d="M603 793 c-16 -6 -17 -33 -3 -33 11 0 26 28 19 34 -2 2 -10 1 -16 -1z"/>
<path d="M835 760 c-3 -5 1 -10 9 -10 9 0 16 5 16 10 0 6 -4 10 -9 10 -6 0
-13 -4 -16 -10z"/>
<path d="M638 729 c-17 -18 -17 -19 1 -19 23 0 37 18 25 29 -5 5 -17 0 -26
-10z"/>
<path d="M700 699 c0 -5 5 -7 10 -4 6 3 10 8 10 11 0 2 -4 4 -10 4 -5 0 -10
-5 -10 -11z"/>
<path d="M1490 700 c0 -5 -7 -7 -15 -4 -13 5 -14 2 -6 -19 8 -19 6 -27 -5 -31
-14 -6 -20 -26 -6 -26 4 0 22 13 41 29 32 26 34 30 19 45 -19 18 -28 20 -28 6z"/>
<path d="M305 670 c4 -6 11 -8 16 -5 14 9 11 15 -7 15 -8 0 -12 -5 -9 -10z"/>
<path d="M555 670 c-3 -5 -1 -10 4 -10 6 0 11 5 11 10 0 6 -2 10 -4 10 -3 0
-8 -4 -11 -10z"/>
<path d="M785 670 c-3 -5 -1 -10 4 -10 6 0 11 5 11 10 0 6 -2 10 -4 10 -3 0
-8 -4 -11 -10z"/>
<path d="M151 631 c-7 -5 -12 -14 -10 -20 2 -6 10 -2 17 9 14 22 13 23 -7 11z"/>
<path d="M310 604 c0 -8 5 -12 10 -9 6 3 10 10 10 16 0 5 -4 9 -10 9 -5 0 -10
-7 -10 -16z"/>
<path d="M750 585 c0 -8 7 -15 15 -15 8 0 15 7 15 15 0 8 -7 15 -15 15 -8 0
-15 -7 -15 -15z"/>
<path d="M240 559 c0 -5 5 -7 10 -4 6 3 10 8 10 11 0 2 -4 4 -10 4 -5 0 -10
-5 -10 -11z"/>
<path d="M686 543 c-11 -11 -6 -23 9 -23 8 0 15 4 15 9 0 13 -16 22 -24 14z"/>
<path d="M350 529 c0 -5 5 -7 10 -4 6 3 10 8 10 11 0 2 -4 4 -10 4 -5 0 -10
-5 -10 -11z"/>
<path d="M295 500 c3 -5 10 -10 16 -10 5 0 9 5 9 10 0 6 -7 10 -16 10 -8 0
-12 -4 -9 -10z"/>
<path d="M361 486 c-19 -23 4 -28 24 -6 15 17 16 20 3 20 -9 0 -21 -6 -27 -14z"/>
</g>
</svg>
